<mxfile host="app.diagrams.net" modified="2023-06-26T15:53:12.462Z" agent="Mozilla/5.0 (Windows NT 10.0; Win64; x64) AppleWebKit/537.36 (KHTML, like Gecko) Chrome/114.0.0.0 Safari/537.36 Edg/114.0.1823.58" etag="jfaKLl6dijRgNaspXcG6" version="21.5.0" type="device">
  <diagram name="PÃ¡gina-1" id="RyVE8lqHZKsKpABaPlP7">
    <mxGraphModel dx="996" dy="573" grid="1" gridSize="10" guides="1" tooltips="1" connect="1" arrows="1" fold="1" page="1" pageScale="1" pageWidth="827" pageHeight="1169" math="0" shadow="0">
      <root>
        <mxCell id="0" />
        <mxCell id="1" parent="0" />
        <mxCell id="UfalZ7OtEnxsD1D9u4Bz-14" style="edgeStyle=orthogonalEdgeStyle;rounded=0;orthogonalLoop=1;jettySize=auto;html=1;exitX=1;exitY=0.5;exitDx=0;exitDy=0;" edge="1" parent="1" source="UfalZ7OtEnxsD1D9u4Bz-3">
          <mxGeometry relative="1" as="geometry">
            <mxPoint x="660" y="225" as="targetPoint" />
            <Array as="points">
              <mxPoint x="600" y="215" />
              <mxPoint x="600" y="226" />
            </Array>
          </mxGeometry>
        </mxCell>
        <mxCell id="UfalZ7OtEnxsD1D9u4Bz-3" value="" style="rounded=1;whiteSpace=wrap;html=1;" vertex="1" parent="1">
          <mxGeometry x="90" y="70" width="440" height="290" as="geometry" />
        </mxCell>
        <mxCell id="UfalZ7OtEnxsD1D9u4Bz-5" value="SGBD" style="text;html=1;strokeColor=none;fillColor=none;align=center;verticalAlign=middle;whiteSpace=wrap;rounded=0;" vertex="1" parent="1">
          <mxGeometry x="270" y="80" width="60" height="30" as="geometry" />
        </mxCell>
        <mxCell id="UfalZ7OtEnxsD1D9u4Bz-8" value="" style="rounded=1;whiteSpace=wrap;html=1;" vertex="1" parent="1">
          <mxGeometry x="140" y="160" width="120" height="60" as="geometry" />
        </mxCell>
        <mxCell id="UfalZ7OtEnxsD1D9u4Bz-9" value="Interface web" style="text;html=1;strokeColor=none;fillColor=none;align=center;verticalAlign=middle;whiteSpace=wrap;rounded=0;" vertex="1" parent="1">
          <mxGeometry x="170" y="175" width="60" height="30" as="geometry" />
        </mxCell>
        <mxCell id="UfalZ7OtEnxsD1D9u4Bz-13" value="API" style="rounded=1;whiteSpace=wrap;html=1;" vertex="1" parent="1">
          <mxGeometry x="330" y="160" width="120" height="60" as="geometry" />
        </mxCell>
        <mxCell id="UfalZ7OtEnxsD1D9u4Bz-17" value="" style="endArrow=classic;startArrow=classic;html=1;rounded=0;exitX=1;exitY=0.5;exitDx=0;exitDy=0;entryX=0.998;entryY=0.379;entryDx=0;entryDy=0;entryPerimeter=0;" edge="1" parent="1" source="UfalZ7OtEnxsD1D9u4Bz-13">
          <mxGeometry width="50" height="50" relative="1" as="geometry">
            <mxPoint x="460" y="205" as="sourcePoint" />
            <mxPoint x="529.1199999999999" y="194.90999999999997" as="targetPoint" />
          </mxGeometry>
        </mxCell>
        <mxCell id="UfalZ7OtEnxsD1D9u4Bz-18" value="" style="endArrow=classic;startArrow=classic;html=1;rounded=0;exitX=1;exitY=0.5;exitDx=0;exitDy=0;" edge="1" parent="1" source="UfalZ7OtEnxsD1D9u4Bz-8">
          <mxGeometry width="50" height="50" relative="1" as="geometry">
            <mxPoint x="260" y="192.88" as="sourcePoint" />
            <mxPoint x="330" y="187" as="targetPoint" />
          </mxGeometry>
        </mxCell>
        <mxCell id="UfalZ7OtEnxsD1D9u4Bz-19" value="word" style="shape=datastore;whiteSpace=wrap;html=1;" vertex="1" parent="1">
          <mxGeometry x="670" y="185" width="100" height="75" as="geometry" />
        </mxCell>
        <mxCell id="UfalZ7OtEnxsD1D9u4Bz-21" value="" style="endArrow=none;html=1;rounded=0;exitX=0.005;exitY=0.14;exitDx=0;exitDy=0;exitPerimeter=0;entryX=1.008;entryY=0.176;entryDx=0;entryDy=0;entryPerimeter=0;" edge="1" parent="1">
          <mxGeometry width="50" height="50" relative="1" as="geometry">
            <mxPoint x="90.00000000000004" y="109.56000000000002" as="sourcePoint" />
            <mxPoint x="531.3199999999999" y="119.99999999999996" as="targetPoint" />
            <Array as="points">
              <mxPoint x="347.8" y="109.96" />
              <mxPoint x="440" y="110" />
              <mxPoint x="480" y="110" />
              <mxPoint x="510" y="110" />
              <mxPoint x="520" y="110" />
              <mxPoint x="530" y="110" />
            </Array>
          </mxGeometry>
        </mxCell>
        <mxCell id="UfalZ7OtEnxsD1D9u4Bz-22" value="Jv. Abel&lt;br&gt;" style="shape=umlActor;verticalLabelPosition=bottom;verticalAlign=top;outlineConnect=0;gradientColor=none;html=1;" vertex="1" parent="1">
          <mxGeometry x="160" y="450" width="30" height="60" as="geometry" />
        </mxCell>
        <mxCell id="UfalZ7OtEnxsD1D9u4Bz-23" value="" style="endArrow=classic;startArrow=classic;html=1;rounded=0;exitX=0.25;exitY=1;exitDx=0;exitDy=0;" edge="1" parent="1" source="UfalZ7OtEnxsD1D9u4Bz-3">
          <mxGeometry width="50" height="50" relative="1" as="geometry">
            <mxPoint x="150" y="270" as="sourcePoint" />
            <mxPoint x="200" y="220" as="targetPoint" />
          </mxGeometry>
        </mxCell>
        <mxCell id="UfalZ7OtEnxsD1D9u4Bz-24" value="" style="endArrow=classic;startArrow=classic;html=1;rounded=0;" edge="1" parent="1">
          <mxGeometry width="50" height="50" relative="1" as="geometry">
            <mxPoint x="180" y="450" as="sourcePoint" />
            <mxPoint x="200" y="360" as="targetPoint" />
          </mxGeometry>
        </mxCell>
      </root>
    </mxGraphModel>
  </diagram>
</mxfile>
